<svg width="50" height="50" viewBox="0 0 50 50" fill="none" xmlns="http://www.w3.org/2000/svg">
<path fill-rule="evenodd" clip-rule="evenodd" d="M24 8C24.5523 8 25 8.44772 25 9L25 11C25 11.5523 24.5523 12 24 12C23.4477 12 23 11.5523 23 11L23 9C23 8.44772 23.4477 8 24 8Z" fill="#333333"/>
<path fill-rule="evenodd" clip-rule="evenodd" d="M15.5001 39.7225C15.0218 39.4463 14.8579 38.8347 15.134 38.3564L16.134 36.6244C16.4102 36.1461 17.0218 35.9822 17.5001 36.2584C17.9784 36.5345 18.1422 37.1461 17.8661 37.6244L16.8661 39.3564C16.5899 39.8347 15.9784 39.9986 15.5001 39.7225Z" fill="#333333"/>
<path fill-rule="evenodd" clip-rule="evenodd" d="M9.27759 33.5C9.00145 33.0217 9.16532 32.4101 9.64361 32.134L11.3757 31.134C11.854 30.8578 12.4655 31.0217 12.7417 31.5C13.0178 31.9783 12.854 32.5899 12.3757 32.866L10.6436 33.866C10.1653 34.1422 9.55373 33.9783 9.27759 33.5Z" fill="#333333"/>
<path fill-rule="evenodd" clip-rule="evenodd" d="M7 25C7 24.4477 7.44772 24 8 24L10 24C10.5523 24 11 24.4477 11 25C11 25.5523 10.5523 26 10 26L8 26C7.44772 26 7 25.5523 7 25Z" fill="#333333"/>
<path fill-rule="evenodd" clip-rule="evenodd" d="M9.27759 16.5C9.55373 16.0217 10.1653 15.8578 10.6436 16.134L12.3757 17.134C12.854 17.4101 13.0178 18.0217 12.7417 18.5C12.4655 18.9783 11.854 19.1422 11.3757 18.866L9.64361 17.866C9.16532 17.5899 9.00145 16.9783 9.27759 16.5Z" fill="#333333"/>
<path fill-rule="evenodd" clip-rule="evenodd" d="M15.4999 10.2775C15.9782 10.0014 16.5898 10.1653 16.866 10.6436L17.866 12.3756C18.1421 12.8539 17.9782 13.4655 17.4999 13.7416C17.0216 14.0178 16.4101 13.8539 16.1339 13.3756L15.1339 11.6436C14.8578 11.1653 15.0216 10.5537 15.4999 10.2775Z" fill="#333333"/>
<path fill-rule="evenodd" clip-rule="evenodd" d="M24 38C24.5523 38 25 38.4477 25 39L25 41C25 41.5523 24.5523 42 24 42C23.4477 42 23 41.5523 23 41L23 39C23 38.4477 23.4477 38 24 38Z" fill="#333333"/>
<path fill-rule="evenodd" clip-rule="evenodd" d="M32 34C36.9706 34 41 29.9706 41 25C41 20.0294 36.9706 16 32 16C27.0294 16 23 20.0294 23 25C23 29.9706 27.0294 34 32 34ZM32 36C38.0751 36 43 31.0751 43 25C43 18.9249 38.0751 14 32 14C25.9249 14 21 18.9249 21 25C21 31.0751 25.9249 36 32 36Z" fill="#333333"/>
<path fill-rule="evenodd" clip-rule="evenodd" d="M25.5006 33.8755C25.0126 33.9574 24.5113 34 24 34C19.0294 34 15 29.9706 15 25C15 20.0294 19.0294 16 24 16C24.5113 16 25.0126 16.0426 25.5006 16.1245C26.2646 15.5641 27.1037 15.0999 28 14.7499C26.7603 14.2657 25.4112 14 24 14C17.9249 14 13 18.9249 13 25C13 31.0751 17.9249 36 24 36C25.4112 36 26.7603 35.7343 28 35.2501C27.1037 34.9001 26.2646 34.4359 25.5006 33.8755Z" fill="#333333"/>
</svg>
